<svg width="64" height="64" viewBox="0 0 64 64" fill="none" xmlns="http://www.w3.org/2000/svg">
<path fill-rule="evenodd" clip-rule="evenodd" d="M32 0C49.6731 0 64 14.3269 64 32C64 49.6731 49.6731 64 32 64C14.3269 64 0 49.6731 0 32C0 14.3269 14.3269 0 32 0ZM39.249 24C39.0197 23.9973 38.7916 24.0366 38.5791 24.1152C38.3668 24.1939 38.1739 24.3105 38.0117 24.458C37.8495 24.6055 37.7213 24.7813 37.6348 24.9746C37.5483 25.1679 37.5051 25.3753 37.5078 25.584C37.5106 25.7928 37.5588 25.9999 37.6504 26.1914C37.742 26.3827 37.8751 26.5553 38.041 26.6992L42.1924 30.4736H31.8535C31.1408 26.7857 27.8961 24 24 24C19.582 24.0002 16.0001 27.582 16 32C16 36.4181 19.582 39.9998 24 40C27.8687 40 31.0959 37.2538 31.8389 33.6045H42.1543L38.041 37.3555C37.7322 37.6514 37.5627 38.0459 37.5684 38.4541C37.5742 38.8625 37.755 39.2533 38.0723 39.542C38.3895 39.8306 38.8182 39.995 39.2666 40C39.7151 40.0049 40.1488 39.85 40.4736 39.5684L47.4961 33.1738C47.6562 33.0289 47.7827 32.856 47.8691 32.666C47.9555 32.476 47.9998 32.2721 47.999 32.0664V31.9883C47.9987 31.5734 47.818 31.1755 47.4961 30.8818L40.4736 24.4873C40.3156 24.3359 40.1252 24.2145 39.915 24.1309C39.7049 24.0473 39.4783 24.0027 39.249 24Z" fill="#9C4E78" fill-opacity="0.25"/>
</svg>
