<svg width="64" height="60" viewBox="0 0 64 60" fill="none" xmlns="http://www.w3.org/2000/svg">
<path d="M49.3333 0C41.24 0 34.6667 6.57333 34.6667 14.6667V28C34.6667 28.7333 35.2667 29.3333 36 29.3333H49.3333C57.4267 29.3333 64 22.76 64 14.6667C64 6.57333 57.4267 0 49.3333 0Z" fill="#116964" fill-opacity="0.85"/>
<path d="M48 33.3333H36C35.2667 33.3333 34.6667 33.9333 34.6667 34.6667V46.6667C34.6667 54.0133 40.6533 60 48 60C55.3467 60 61.3333 54.0133 61.3333 46.6667C61.3333 39.32 55.3467 33.3333 48 33.3333Z" fill="#116964" fill-opacity="0.85"/>
<path d="M14.6667 0C6.57333 0 0 6.57333 0 14.6667C0 22.76 6.57333 29.3333 14.6667 29.3333H28C28.7333 29.3333 29.3333 28.7333 29.3333 28V14.6667C29.3333 6.57333 22.76 0 14.6667 0Z" fill="#116964" fill-opacity="0.85"/>
<path d="M28 33.3333H17.3333C10.72 33.3333 5.33333 38.72 5.33333 45.3333C5.33333 51.9467 10.72 57.3333 17.3333 57.3333C23.9467 57.3333 29.3333 51.9467 29.3333 45.3333V34.6667C29.3333 33.9333 28.7333 33.3333 28 33.3333Z" fill="#116964" fill-opacity="0.85"/>
</svg>
