<svg width="64" height="64" viewBox="0 0 64 64" fill="none" xmlns="http://www.w3.org/2000/svg">
<path fill-rule="evenodd" clip-rule="evenodd" d="M32 0C49.6731 0 64 14.3269 64 32C64 49.6731 49.6731 64 32 64C14.3269 64 0 49.6731 0 32C0 14.3269 14.3269 0 32 0ZM32.5059 12.707C32.1154 12.3166 31.4823 12.3166 31.0918 12.707L12.707 31.0918C12.3165 31.4823 12.3166 32.1153 12.707 32.5059L31.0918 50.8906C31.4823 51.2811 32.1153 51.2811 32.5059 50.8906L50.8906 32.5059C51.2811 32.1153 51.2811 31.4823 50.8906 31.0918L32.5059 12.707Z" fill="#9C4E78" fill-opacity="0.25"/>
</svg>
