<svg width="64" height="64" viewBox="0 0 64 64" fill="none" xmlns="http://www.w3.org/2000/svg">
<path fill-rule="evenodd" clip-rule="evenodd" d="M32 0C49.6731 0 64 14.3269 64 32C64 49.6731 49.6731 64 32 64C14.3269 64 0 49.6731 0 32C0 14.3269 14.3269 0 32 0ZM18 40C16.8954 40 16 40.8954 16 42V46C16 47.1046 16.8954 48 18 48H46C47.1046 48 48 47.1046 48 46V42C48 40.8954 47.1046 40 46 40H18ZM18 28C16.8954 28 16 28.8954 16 30V34C16 35.1046 16.8954 36 18 36H46C47.1046 36 48 35.1046 48 34V30C48 28.8954 47.1046 28 46 28H18ZM18 16C16.8954 16 16 16.8954 16 18V22C16 23.1046 16.8954 24 18 24H46C47.1046 24 48 23.1046 48 22V18C48 16.8954 47.1046 16 46 16H18Z" fill="#116964" fill-opacity="0.25"/>
</svg>
