<svg width="64" height="64" viewBox="0 0 64 64" fill="none" xmlns="http://www.w3.org/2000/svg">
<path fill-rule="evenodd" clip-rule="evenodd" d="M32.585 25.6123C35.8422 24.7398 39.1936 26.6754 40.0664 29.9326C40.9392 33.1899 39.0044 36.5422 35.7471 37.415C34.5445 37.7373 33.3306 37.6758 32.2314 37.3076L28.3125 44.0957C27.9756 44.6793 27.2271 44.8798 26.6436 44.543C26.06 44.206 25.8593 43.4576 26.1963 42.874L30.1152 36.0869C29.2467 35.3191 28.5869 34.2973 28.2646 33.0947C27.392 29.8375 29.3277 26.4851 32.585 25.6123ZM37.7061 30.5654C37.1824 28.611 35.1712 27.449 33.2168 27.9727C31.2627 28.4964 30.1017 30.5077 30.625 32.4619C31.1486 34.4162 33.16 35.5781 35.1143 35.0547C37.0685 34.531 38.2295 32.5197 37.7061 30.5654Z" fill="#9C4E78" fill-opacity="0.25"/>
<path d="M34.7754 14.9062C35.088 14.8225 35.4221 14.8658 35.7021 15.0283C35.9832 15.1896 36.1887 15.4578 36.2725 15.7705L36.5879 16.9502L18.8857 21.6943C18.573 21.7781 18.2382 21.734 17.958 21.5713C17.6772 21.41 17.4724 21.1426 17.3887 20.8301C17.3049 20.5174 17.349 20.1834 17.5117 19.9033C17.6729 19.6224 17.9402 19.4178 18.2529 19.334L34.7754 14.9062Z" fill="#9C4E78" fill-opacity="0.25"/>
<path fill-rule="evenodd" clip-rule="evenodd" d="M32 0C49.6731 0 64 14.3269 64 32C64 49.6731 49.6731 64 32 64C14.3269 64 0 49.6731 0 32C0 14.3269 14.3269 0 32 0ZM36.9238 12.9131C36.0827 12.4265 35.0828 12.2943 34.1436 12.5459C30.0566 13.641 21.7071 15.8785 17.6201 16.9736C16.6809 17.2254 15.8807 17.8396 15.3955 18.6816C14.9089 19.5229 14.7766 20.5235 15.0283 21.4629C15.0541 21.559 20.4313 41.6256 22.3018 48.6064C22.5535 49.5458 23.1677 50.3468 24.0098 50.832C24.851 51.3187 25.8516 51.4499 26.791 51.1982C31.3134 49.9865 41.1512 47.3505 45.6738 46.1387C46.6133 45.887 47.4142 45.2728 47.8994 44.4307C48.3861 43.5894 48.5173 42.5888 48.2656 41.6494C46.8888 36.5109 43.6347 24.3652 42.2578 19.2266C42.0061 18.2872 41.3919 17.4862 40.5498 17.001C40.0721 16.7242 39.5427 16.5628 39.0029 16.5215L38.6328 15.1377C38.3811 14.1983 37.766 13.3983 36.9238 12.9131Z" fill="#9C4E78" fill-opacity="0.25"/>
</svg>
