<svg width="16" height="16" viewBox="0 0 16 16" fill="none" xmlns="http://www.w3.org/2000/svg">
<path d="M8 0C3.58737 0 0 3.58737 0 8C0 12.4126 3.58737 16 8 16C12.4126 16 16 12.4126 16 8C16 3.58737 12.4126 0 8 0ZM11.7726 6.23158L8.05053 11.0316L8.01684 11.0653C7.62947 11.5705 6.92211 11.6547 6.41684 11.2674C6.33263 11.2 6.24842 11.1158 6.18105 11.0147L4.21053 8.20211C3.92421 7.79789 4.02526 7.25895 4.42947 6.97263C4.78316 6.73684 5.2379 6.77053 5.54105 7.05684L7.09053 8.50526L10.4421 5.06947C10.7789 4.71579 11.3347 4.71579 11.6884 5.05263C12.0084 5.37263 12.0421 5.87789 11.7726 6.23158Z" fill="#116964"/>
</svg>
