<svg width="32" height="32" viewBox="0 0 32 32" fill="none" xmlns="http://www.w3.org/2000/svg">
<g clip-path="url(#clip0_237_464)">
<path fill-rule="evenodd" clip-rule="evenodd" d="M16 0C24.8366 0 32 7.16344 32 16C32 24.8366 24.8366 32 16 32C7.16344 32 0 24.8366 0 16C0 7.16344 7.16344 0 16 0ZM17.3145 7.41406C16.5334 6.63302 15.2654 6.63302 14.4844 7.41406L7.41406 14.4844C6.63302 15.2654 6.63302 16.5334 7.41406 17.3145L14.4844 24.3848C15.2654 25.1658 16.5334 25.1658 17.3145 24.3848L24.3848 17.3145C25.1658 16.5334 25.1658 15.2654 24.3848 14.4844L17.3145 7.41406Z" fill="#9C4E78"/>
</g>
<defs>
<clipPath id="clip0_237_464">
<rect width="32" height="32" fill="white"/>
</clipPath>
</defs>
</svg>
