<svg width="16" height="16" viewBox="0 0 16 16" fill="none" xmlns="http://www.w3.org/2000/svg">
<path d="M8 0C12.4183 0 16 3.58172 16 8C16 12.4183 12.4183 16 8 16C3.58172 16 0 12.4183 0 8C0 3.58172 3.58172 0 8 0ZM9.23145 3.22754C9.02124 3.10593 8.77088 3.07295 8.53613 3.13574C7.5144 3.40951 5.42703 3.96938 4.40527 4.24316C4.17042 4.30609 3.96994 4.45938 3.84863 4.66992C3.72702 4.88022 3.69392 5.13043 3.75684 5.36523C3.75832 5.37077 5.10672 10.403 5.5752 12.1514C5.63814 12.3862 5.79241 12.5857 6.00293 12.707C6.21323 12.8287 6.46342 12.8617 6.69824 12.7988C7.82908 12.4958 10.2885 11.8371 11.4189 11.5342C11.6535 11.4712 11.8534 11.3177 11.9746 11.1074C12.0963 10.8971 12.1293 10.6469 12.0664 10.4121C11.7222 9.12748 10.9087 6.0903 10.5645 4.80566C10.5015 4.57109 10.348 4.37126 10.1377 4.25C10.0183 4.18084 9.88585 4.14024 9.75098 4.12988L9.6582 3.78418C9.59529 3.5494 9.44188 3.34886 9.23145 3.22754ZM8.14648 6.40234C8.96061 6.18442 9.79833 6.66837 10.0166 7.48242C10.2348 8.29675 9.75085 9.13532 8.93652 9.35352C8.63597 9.43399 8.33233 9.41821 8.05762 9.32617L7.07812 11.0234C6.99397 11.1692 6.80697 11.2196 6.66113 11.1357C6.51523 11.0515 6.46459 10.8637 6.54883 10.7178L7.52832 9.02148C7.31128 8.82959 7.14698 8.57395 7.06641 8.27344C6.84821 7.45911 7.33216 6.62054 8.14648 6.40234ZM9.42676 7.64062C9.29582 7.15218 8.79316 6.86244 8.30469 6.99316C7.81609 7.12408 7.52533 7.62664 7.65625 8.11523C7.78719 8.60371 8.28981 8.89348 8.77832 8.7627C9.26692 8.63178 9.55768 8.12922 9.42676 7.64062ZM8.69434 3.72656C8.77244 3.70572 8.85583 3.7162 8.92578 3.75684C8.99595 3.79716 9.04742 3.86425 9.06836 3.94238L9.14746 4.2373L4.72168 5.42285C4.64349 5.4438 4.55929 5.43326 4.48926 5.39258C4.41915 5.35227 4.3686 5.2851 4.34766 5.20703C4.32673 5.12892 4.33734 5.04558 4.37793 4.97559C4.41824 4.90533 4.48529 4.85396 4.56348 4.83301L8.69434 3.72656Z" fill="#9C4E78"/>
</svg>
