<svg width="16" height="16" viewBox="0 0 16 16" fill="none" xmlns="http://www.w3.org/2000/svg">
<path d="M8 0C12.4183 0 16 3.58172 16 8C16 12.4183 12.4183 16 8 16C3.58172 16 0 12.4183 0 8C0 3.58172 3.58172 0 8 0ZM10.3301 3.69238C10.1429 3.69262 9.95758 3.7329 9.78711 3.81055C9.6167 3.8882 9.46435 4.00133 9.34082 4.14258C9.21728 4.00128 9.06498 3.88822 8.89453 3.81055C8.724 3.73284 8.5388 3.69262 8.35156 3.69238C8.26416 3.69241 8.17997 3.72694 8.11816 3.78906C8.05642 3.85115 8.02252 3.93566 8.02246 4.02344C8.02246 4.11119 8.05651 4.1957 8.11816 4.25781C8.17997 4.31993 8.26416 4.35545 8.35156 4.35547C8.52643 4.35547 8.69471 4.42454 8.81836 4.54883C8.94191 4.67306 9.0107 4.84192 9.01074 5.01758V5.34863H4.06641C3.8041 5.34863 3.55169 5.4542 3.36621 5.64062C3.18106 5.82692 3.07726 6.07945 3.07715 6.34277V9.65723C3.07726 9.92055 3.18106 10.1731 3.36621 10.3594C3.55169 10.5458 3.8041 10.6514 4.06641 10.6514H9.01074V10.9824C9.0107 11.1581 8.94191 11.3269 8.81836 11.4512C8.69471 11.5755 8.52643 11.6445 8.35156 11.6445C8.26416 11.6446 8.17997 11.6801 8.11816 11.7422C8.05651 11.8043 8.02246 11.8888 8.02246 11.9766C8.02252 12.0643 8.05642 12.1489 8.11816 12.2109C8.17997 12.2731 8.26416 12.3076 8.35156 12.3076C8.5388 12.3074 8.724 12.2672 8.89453 12.1895C9.06498 12.1118 9.21728 11.9987 9.34082 11.8574C9.46435 11.9987 9.6167 12.1118 9.78711 12.1895C9.95758 12.2671 10.1429 12.3074 10.3301 12.3076C10.4172 12.3075 10.5008 12.2728 10.5625 12.2109C10.6243 12.1488 10.6591 12.0644 10.6592 11.9766C10.6592 11.8887 10.6243 11.8043 10.5625 11.7422C10.5008 11.6802 10.4173 11.6446 10.3301 11.6445C10.1552 11.6445 9.98692 11.5754 9.86328 11.4512C9.73967 11.3269 9.66997 11.1581 9.66992 10.9824V10.6514H11.3184C11.5806 10.6514 11.8321 10.5458 12.0176 10.3594C12.203 10.173 12.3075 9.92072 12.3076 9.65723V6.34277C12.3075 6.07928 12.203 5.82695 12.0176 5.64062C11.8321 5.45423 11.5806 5.34863 11.3184 5.34863H9.66992V5.01758C9.66997 4.84188 9.73967 4.67307 9.86328 4.54883C9.98692 4.42459 10.1552 4.35547 10.3301 4.35547C10.4173 4.35536 10.5008 4.31982 10.5625 4.25781C10.6243 4.19567 10.6592 4.11132 10.6592 4.02344C10.6591 3.93564 10.6243 3.85115 10.5625 3.78906C10.5008 3.7272 10.4172 3.69249 10.3301 3.69238ZM9.01074 6.01172V9.98828H4.06641C3.97897 9.98828 3.89483 9.95277 3.83301 9.89062C3.77138 9.8286 3.73644 9.74489 3.73633 9.65723V6.34277C3.73644 6.25511 3.77138 6.1714 3.83301 6.10938C3.89483 6.04723 3.97897 6.01172 4.06641 6.01172H9.01074ZM11.3184 6.01172C11.4058 6.01172 11.4899 6.04723 11.5518 6.10938C11.6133 6.1714 11.6483 6.25515 11.6484 6.34277V9.65723C11.6483 9.74485 11.6133 9.8286 11.5518 9.89062C11.4899 9.95277 11.4058 9.98828 11.3184 9.98828H9.66992V6.01172H11.3184ZM4.61523 6.76953C4.53368 6.76957 4.45513 6.80171 4.39746 6.85938C4.33987 6.91706 4.30762 6.99563 4.30762 7.07715C4.30768 7.15867 4.33981 7.23727 4.39746 7.29492C4.45513 7.35257 4.5337 7.38473 4.61523 7.38477H4.92285V8.92285C4.92285 9.00446 4.95597 9.08292 5.01367 9.14062C5.07128 9.19812 5.14908 9.23039 5.23047 9.23047C5.31206 9.23047 5.39054 9.1983 5.44824 9.14062C5.50595 9.08292 5.53809 9.00446 5.53809 8.92285V7.38477H5.8457C5.92715 7.38477 6.00581 7.35241 6.06348 7.29492C6.12113 7.23727 6.15424 7.15867 6.1543 7.07715C6.1543 6.99554 6.12118 6.91708 6.06348 6.85938C6.00578 6.80174 5.92726 6.76953 5.8457 6.76953H4.61523Z" fill="#9C4E78"/>
</svg>
