<svg width="16" height="16" viewBox="0 0 16 16" fill="none" xmlns="http://www.w3.org/2000/svg">
<path d="M8 0C12.4183 0 16 3.58172 16 8C16 12.4183 12.4183 16 8 16C3.58172 16 0 12.4183 0 8C0 3.58172 3.58172 0 8 0ZM4.69531 8.65234C4.60008 8.65234 4.54791 8.70537 4.46973 8.79395L3.16797 10.1338C3.12762 10.2132 3.13206 10.3086 3.17773 10.3848C3.22324 10.4617 3.30586 10.5088 3.39355 10.5088H4.17676V11.7461C4.17678 12.0309 4.40914 12.2617 4.69531 12.2617C4.98135 12.2616 5.21287 12.0308 5.21289 11.7461V10.5088H5.99707C6.08455 10.5088 6.16641 10.4616 6.21191 10.3848C6.23639 10.3438 6.24998 10.297 6.25 10.25C6.25 10.2102 6.24055 10.1705 6.22266 10.1338L4.9209 8.79395C4.84634 8.71452 4.79072 8.65247 4.69531 8.65234ZM7.70117 6.28027C7.60581 6.28027 7.55395 6.34648 7.47559 6.45605L6.17383 8.1084C6.1334 8.20665 6.13865 8.3249 6.18457 8.41895C6.2301 8.51369 6.31183 8.57129 6.39941 8.57129H7.18262V11.625C7.18262 11.9765 7.41499 12.2617 7.70117 12.2617C7.98736 12.2616 8.21875 11.9764 8.21875 11.625V8.57129H9.00293C9.09036 8.57129 9.17225 8.51365 9.21777 8.41895C9.24233 8.36831 9.25585 8.3101 9.25586 8.25195C9.25586 8.20283 9.24645 8.1537 9.22852 8.1084L7.92676 6.45605C7.85208 6.35788 7.79671 6.28039 7.70117 6.28027ZM10.707 3.29004C10.6117 3.29004 10.5597 3.34294 10.4814 3.43164L9.17969 4.77148C9.13939 4.85105 9.14456 4.94633 9.19043 5.02246C9.23595 5.09933 9.31763 5.14551 9.40527 5.14551H10.1885V11.7461C10.1885 12.0309 10.4208 12.2617 10.707 12.2617C10.9932 12.2616 11.2256 12.0309 11.2256 11.7461V5.14551H12.0088C12.0963 5.14551 12.1781 5.09926 12.2236 5.02246C12.2481 4.98152 12.2617 4.93471 12.2617 4.8877C12.2617 4.84799 12.2522 4.80812 12.2344 4.77148L10.9326 3.43164C10.858 3.35214 10.8026 3.2901 10.707 3.29004Z" fill="#116964"/>
</svg>
