<svg width="16" height="16" viewBox="0 0 16 16" fill="none" xmlns="http://www.w3.org/2000/svg">
<path d="M8 0C12.4183 0 16 3.58172 16 8C16 12.4183 12.4183 16 8 16C3.58172 16 0 12.4183 0 8C0 3.58172 3.58172 0 8 0ZM7.1709 3C6.84927 3.00018 6.56862 3.19661 6.46875 3.48926C6.1839 4.31783 6.21271 4.46097 5.96484 4.59668C5.71365 4.7427 5.63189 4.63875 4.71875 4.46387C4.408 4.40315 4.08973 4.53976 3.93066 4.80762L3.09863 6.19238C2.93955 6.46025 2.97664 6.79682 3.1875 7.02539C3.79758 7.68216 3.93066 7.72863 3.93066 8C3.93066 8.27138 3.82346 8.28929 3.1875 8.97461C2.97664 9.20318 2.93955 9.53977 3.09863 9.80762L3.93066 11.1924C4.08974 11.4602 4.408 11.5968 4.71875 11.5361C5.62822 11.3648 5.71368 11.2609 5.96484 11.4033C6.209 11.5355 6.1728 11.65 6.46875 12.5107C6.56862 12.8034 6.84928 12.9998 7.1709 13H8.8291C9.15073 12.9998 9.43138 12.8034 9.53125 12.5107C9.8161 11.6822 9.78729 11.539 10.0352 11.4033C10.279 11.2573 10.3829 11.3648 11.2812 11.5361C11.5957 11.6004 11.9103 11.4602 12.0693 11.1924L12.9014 9.80762C13.0604 9.53975 13.0234 9.20318 12.8125 8.97461C12.2024 8.31785 12.0693 8.27137 12.0693 8C12.0693 7.73934 12.1765 7.71072 12.8125 7.02539C13.0234 6.79682 13.0604 6.46023 12.9014 6.19238L12.0693 4.80762C11.9103 4.53975 11.592 4.40316 11.2812 4.46387C10.3681 4.63875 10.2863 4.74271 10.0352 4.59668C9.791 4.46454 9.8272 4.34998 9.53125 3.48926C9.43138 3.19659 9.15072 3.00018 8.8291 3H7.1709ZM8 5.85742C9.22449 5.85744 10.2197 6.81786 10.2197 8C10.2197 9.18216 9.22449 10.1426 8 10.1426C6.77549 10.1426 5.78027 9.18215 5.78027 8C5.78027 6.81785 6.77549 5.85742 8 5.85742Z" fill="#116964"/>
</svg>
