<svg width="32" height="32" viewBox="0 0 32 32" fill="none" xmlns="http://www.w3.org/2000/svg">
<g clip-path="url(#clip0_237_462)">
<path fill-rule="evenodd" clip-rule="evenodd" d="M16 0C24.8366 0 32 7.16344 32 16C32 24.8366 24.8366 32 16 32C7.16344 32 0 24.8366 0 16C0 7.16344 7.16344 0 16 0ZM10 20C8.89544 20 8 20.8954 8 22C8 23.1046 8.89544 24 10 24H22C23.1046 24 24 23.1046 24 22C24 20.8954 23.1046 20 22 20H10ZM10 14C8.89544 14 8 14.8954 8 16C8 17.1046 8.89544 18 10 18H22C23.1046 18 24 17.1046 24 16C24 14.8954 23.1046 14 22 14H10ZM10 8C8.89544 8 8 8.89544 8 10C8 11.1046 8.89544 12 10 12H22C23.1046 12 24 11.1046 24 10C24 8.89544 23.1046 8 22 8H10Z" fill="#116964"/>
</g>
<defs>
<clipPath id="clip0_237_462">
<rect width="32" height="32" fill="white"/>
</clipPath>
</defs>
</svg>
