<svg width="32" height="32" viewBox="0 0 32 32" fill="none" xmlns="http://www.w3.org/2000/svg">
<path d="M16 0C12.8355 0 9.74207 0.938383 7.11088 2.69649C4.4797 4.45459 2.42894 6.95345 1.21793 9.87706C0.00693252 12.8007 -0.309921 16.0177 0.307443 19.1214C0.924806 22.2251 2.44866 25.0761 4.6863 27.3137C6.92394 29.5513 9.77486 31.0752 12.8786 31.6926C15.9823 32.3099 19.1993 31.9931 22.1229 30.7821C25.0466 29.5711 27.5454 27.5203 29.3035 24.8891C31.0616 22.2579 32 19.1645 32 16C32 11.7565 30.3143 7.68687 27.3137 4.68629C24.3131 1.68571 20.2435 0 16 0ZM15.7821 26.526C15.4199 26.526 15.0658 26.4185 14.7646 26.2173C14.4634 26.016 14.2287 25.73 14.0901 25.3953C13.9514 25.0607 13.9152 24.6924 13.9858 24.3372C14.0565 23.9819 14.2309 23.6555 14.4871 23.3994C14.7432 23.1433 15.0696 22.9688 15.4248 22.8982C15.7801 22.8275 16.1484 22.8638 16.483 23.0024C16.8177 23.141 17.1037 23.3758 17.305 23.6769C17.5062 23.9781 17.6136 24.3322 17.6136 24.6945C17.6127 25.1799 17.4195 25.6453 17.0762 25.9885C16.7329 26.3318 16.2676 26.5251 15.7821 26.526ZM17.7838 17.634C17.7838 17.634 17.6034 17.6987 17.6034 17.8043V19.2579C17.6034 19.7414 17.4113 20.205 17.0695 20.5469C16.7276 20.8888 16.2639 21.0808 15.7804 21.0808C15.2969 21.0808 14.8333 20.8888 14.4914 20.5469C14.1495 20.205 13.9575 19.7414 13.9575 19.2579V17.8043C13.9655 16.9977 14.2263 16.214 14.7033 15.5636C15.1803 14.9131 15.8493 14.4288 16.6162 14.1787C17.145 14.0023 17.6026 13.6597 17.921 13.2021C18.2393 12.7445 18.4014 12.1963 18.383 11.6391C18.3476 10.9655 18.0575 10.3304 17.5714 9.86268C17.0854 9.39493 16.4396 9.12944 15.7651 9.12C15.2795 9.12213 14.8043 9.26126 14.3942 9.52142C13.984 9.78157 13.6557 10.1522 13.4468 10.5906C13.3429 10.8063 13.1975 10.9995 13.0189 11.159C12.8403 11.3185 12.6321 11.4412 12.4061 11.5203C11.9496 11.6799 11.4484 11.6516 11.0128 11.4417C10.5771 11.2318 10.2427 10.8574 10.0831 10.4009C9.92353 9.94447 9.95179 9.44329 10.1617 9.00766C10.6643 7.95421 11.4538 7.06385 12.4395 6.43881C13.4253 5.81377 14.5673 5.47938 15.7345 5.47404H15.7719C17.3934 5.48344 18.9487 6.11859 20.1132 7.24697C21.2778 8.37535 21.9616 9.9098 22.0221 11.5302C22.0673 12.8675 21.6795 14.1836 20.9165 15.2828C20.1534 16.382 19.0559 17.2054 17.7872 17.6306L17.7838 17.634Z" fill="#6C6C6C" fill-opacity="0.85"/>
</svg>
