<svg width="32" height="32" viewBox="0 0 32 32" fill="none" xmlns="http://www.w3.org/2000/svg">
<g clip-path="url(#clip0_237_470)">
<path fill-rule="evenodd" clip-rule="evenodd" d="M16 0C24.8366 0 32 7.16344 32 16C32 24.8366 24.8366 32 16 32C7.16344 32 0 24.8366 0 16C0 7.16344 7.16344 0 16 0ZM19.625 12C19.5103 11.9986 19.3953 12.0173 19.2891 12.0566C19.1831 12.0959 19.0869 12.1549 19.0059 12.2285C18.9247 12.3023 18.8597 12.3916 18.8164 12.4883C18.7734 12.5847 18.7525 12.6889 18.7539 12.793C18.7554 12.8971 18.7805 13.0002 18.8262 13.0957C18.872 13.1913 18.9386 13.2777 19.0215 13.3496L21.0958 15.2363H15.9238C15.5671 13.3928 13.9477 12 12 12C9.791 12.0001 8.00004 13.791 8 16C8.00004 18.209 9.791 19.9999 12 20C13.934 20 15.5462 18.6269 15.918 16.8027H21.0762L19.0215 18.6777C18.8672 18.8256 18.7825 19.0226 18.7852 19.2266C18.7881 19.4308 18.8785 19.6271 19.0371 19.7715C19.1955 19.9152 19.4092 19.9974 19.6328 20C19.8571 20.0024 20.0738 19.924 20.2364 19.7832L23.748 16.5859C23.8278 16.5135 23.8924 16.4268 23.9356 16.332C23.9784 16.2373 24.0004 16.1356 24 16.0332V15.9941C23.9998 15.7868 23.9088 15.5882 23.748 15.4414L20.2364 12.2441C20.1574 12.1684 20.0622 12.1082 19.957 12.0664C19.8521 12.0247 19.7395 12.0014 19.625 12Z" fill="#116964"/>
</g>
<defs>
<clipPath id="clip0_237_470">
<rect width="32" height="32" fill="white"/>
</clipPath>
</defs>
</svg>
