<svg width="16" height="16" viewBox="0 0 16 16" fill="none" xmlns="http://www.w3.org/2000/svg">
<path fill-rule="evenodd" clip-rule="evenodd" d="M7.98996 0C12.4266 0 16 3.5734 16 7.98996C16 12.4266 12.4266 16 7.98996 16C3.5734 16 0 12.4266 0 7.98996C0 3.5734 3.5734 0 7.98996 0ZM4.87829 5.21957H11.1016C11.3827 5.21957 11.5834 5.4404 11.5834 5.70138V6.84567C11.5834 7.10665 11.3827 7.3074 11.1016 7.3074H4.87829C4.61731 7.3074 4.39649 7.10665 4.39649 6.84567V5.70138C4.39649 5.4404 4.61731 5.21957 4.87829 5.21957ZM4.87829 8.67252H11.1016C11.3827 8.67252 11.5834 8.89335 11.5834 9.15433V10.2986C11.5834 10.5596 11.3827 10.7604 11.1016 10.7604H4.87829C4.61731 10.7604 4.39649 10.5596 4.39649 10.2986V9.15433C4.39649 8.89335 4.61731 8.67252 4.87829 8.67252Z" fill="#116964"/>
</svg>
